<?xml version="1.0" encoding="utf-8"?>
<svg version="1.1" id="Logo" xmlns="http://www.w3.org/2000/svg" xmlns:xlink="http://www.w3.org/1999/xlink" x="0px" y="0px"
	 viewBox="0 0 1829.6 392.1" style="enable-background:new 0 0 1829.6 392.1;" xml:space="preserve">
<style type="text/css">
	.st0{fill:#EB7E5A;}
	.st1{fill:#CB2127;}
	.st2{fill:#FFC809;}
</style>
<path id="Cadence" class="st0" d="M693.6,288c0-57.5,35-105.4,77.6-105.4c28.6,0,53.5,20.9,67.2,51.5H809
	c-9.7-15.3-22.9-25.3-37.8-25.3c-27.8,0-51.5,36.6-51.5,79.2c0,42.2,23.7,78,51.5,78c14.9,0,28.2-10.1,37.8-25.3h29.4
	c-13.7,30.6-38.6,51.5-67.2,51.5C728.6,392.1,693.6,345.5,693.6,288z M945,182.6l61.9,209.5h-27.3l-19.3-65.6h-61.1l-19.3,65.6
	h-27.5l62.5-209.5H945z M907.2,300.4h45.4l-22.9-76.8L907.2,300.4z M1029.6,392.1V182.6h61.1c43,0,78.4,46.7,78.4,103.8
	c0,59.1-35.4,105.8-78.4,105.8H1029.6z M1055.8,208.7v157.7h35c28.2,0,52.3-36.2,52.3-78.8c0-43.4-24.1-78.8-52.3-78.8H1055.8z
	 M1205.5,182.6h125.9v26.5h-99.7V267h72.8v25.7h-72.8V366h99.7v26.1h-125.9V182.6z M1363.4,392.1V182.6h24.9l74.4,148.4V182.6h25.7
	v209.5h-24.1l-74.8-148.4v148.4H1363.4z M1524.8,288c0-57.5,35-105.4,77.6-105.4c28.6,0,53.5,20.9,67.2,51.5h-29.4
	c-9.6-15.3-22.9-25.3-37.8-25.3c-27.7,0-51.5,36.6-51.5,79.2c0,42.2,23.7,78,51.5,78c14.9,0,28.2-10.1,37.8-25.3h29.4
	c-13.7,30.6-38.6,51.5-67.2,51.5C1559.8,392.1,1524.8,345.5,1524.8,288z M1703.7,182.6h125.9v26.5h-99.7V267h72.8v25.7h-72.8V366
	h99.7v26.1h-125.9V182.6z"/>
<path id="Caret" class="st1" d="M656.4,392.1h-26.1V0h26.1V392.1z"/>
<path id="Type" class="st2" d="M0,0h176.2v26.1h-74.8v255.4H75.2V26.1H0V0z M150.5,72h29l42.6,92.5l43-92.5h28.6l-58.3,126.7v82.8
	h-26.1v-83.3L150.5,72z M317.5,281.5V72h62.3c34.6,0,62.3,28.2,62.3,62.7c0,34.6-27.7,61.9-62.3,61.9h-36.2v84.9H317.5z M343.6,98.1
	v72.8h36.2c20.1,0,36.6-16.1,36.6-36.2s-16.5-36.6-36.6-36.6H343.6z M470.3,72h125.9v26.5h-99.7v57.9h72.8v25.7h-72.8v73.2h99.7
	v26.1H470.3V72z"/>
</svg>
